<?xml version="1.0" encoding="iso-8859-1"?>
<!-- Generator: Adobe Illustrator 19.0.0, SVG Export Plug-In . SVG Version: 6.00 Build 0)  -->
<svg version="1.1" id="Layer_1" xmlns="http://www.w3.org/2000/svg" xmlns:xlink="http://www.w3.org/1999/xlink" x="0px" y="0px"
	 viewBox="0 0 512.001 512.001" style="enable-background:new 0 0 512.001 512.001;" xml:space="preserve">
<path style="fill:#60FEE6;" d="M429.118,380.136h-24.753h-0.001h-32.796l0,0H216.117c-0.044,0-0.076,0.033-0.076,0.065
	c-0.022,20.84-12.328,38.792-30.072,47.021c-6.333,2.943-13.352,4.632-20.753,4.785c-0.349,0.011-0.698,0.011-1.046,0.011h213.132
	c1.144,0,2.278-0.033,3.401-0.109c27.053-1.755,48.449-24.23,48.493-51.708C429.194,380.168,429.162,380.136,429.118,380.136z"/>
<path style="fill:#57EECF;" d="M185.968,427.222c-6.333,2.943-13.352,4.632-20.753,4.785c-0.349,0.011-0.698,0.011-1.046,0.011
	c-0.142,0-0.283,0-0.425-0.011"/>
<path style="fill:#328777;" d="M257.503,469.328l-147.015,25.93c-7.27,1.275-14.202-3.575-15.478-10.845L24.947,87.174
	c-1.275-7.259,3.575-14.191,10.845-15.478l76.483-13.483v291.751v29.211c0,18.344,9.352,34.715,23.543,44.209l-1.297,7.346
	c-1.602,9.058,4.447,17.69,13.505,19.292L257.503,469.328z"/>
<path style="fill:#57EECF;" d="M391.035,8.182h-266.29c-6.889,0-12.469,5.581-12.469,12.48v43.806V356.22v29.211
	c0,18.344,9.352,34.715,23.543,44.209c8.033,5.374,17.614,8.545,27.925,8.622l22.224-4.785c17.745-8.229,30.05-26.181,30.072-47.021
	c0-0.033,0.033-0.065,0.076-0.065h155.451h32.797V64.752V21.513C404.365,14.155,398.403,8.182,391.035,8.182z"/>
<path style="fill:#4BCDB2;" d="M475.976,71.13l-71.611-12.633v321.638h24.753c0.044,0,0.076,0.033,0.076,0.065
	c-0.044,27.478-21.44,49.953-48.493,51.708c-1.123,0.076-2.256,0.109-3.401,0.109H164.169h-0.458l0.033-0.011
	c-10.311-0.076-19.892-3.248-27.925-8.622l-1.297,7.346c-1.602,9.058,4.447,17.69,13.505,19.292l109.476,19.303L401.28,494.68
	c9.058,1.602,17.701-4.447,19.292-13.505l68.919-390.753C491.083,81.365,485.033,72.722,475.976,71.13z"/>
<polygon style="fill:#60FEE6;" points="402.833,386.18 371.235,392.992 370.036,386.18 "/>
<path style="fill:#57EECF;" d="M162.212,438.051l22.224-4.785c-6.333,2.943-13.352,4.632-20.753,4.785
	c-0.349,0.011-0.698,0.011-1.046,0.011C162.496,438.062,162.354,438.062,162.212,438.051z"/>
<path style="fill:#FFFFFF;" d="M162.637,438.062h-0.458l0.033-0.011C162.354,438.062,162.496,438.062,162.637,438.062z"/>
<g>
	<path style="fill:#50000F;" d="M492.295,72.216l-81.256-14.33V8.175c0-4.516-3.659-8.175-8.175-8.175h-292.1
		c-4.515,0-8.175,3.659-8.175,8.175v49.423L19.705,72.216c-4.446,0.784-7.415,5.024-6.63,9.47l74.697,423.559
		c0.377,2.135,1.586,4.033,3.361,5.277c1.384,0.969,3.022,1.478,4.689,1.478c0.473,0,0.948-0.041,1.42-0.124l158.757-27.998
		l158.76,27.998c0.48,0.085,0.958,0.125,1.43,0.125c3.892,0,7.341-2.79,8.041-6.756l74.697-423.559
		C499.709,77.239,496.741,72.999,492.295,72.216z M418.742,394.557c-3.839,20.209-21.637,35.537-42.946,35.537H203.801
		c9.764-9.196,16.455-21.613,18.358-35.537H418.742z M118.939,16.35h179.236l8.921,8.8c1.462,1.442,2.135,3.485,1.814,5.497
		l-3.04,19.005c-0.823,5.141,4.619,9.035,9.33,6.676l17.414-8.72c1.844-0.923,4.025-0.923,5.869,0l17.414,8.72
		c4.711,2.359,10.152-1.535,9.33-6.676l-3.04-19.005c-0.322-2.012,0.352-4.056,1.814-5.497l8.921-8.8h21.766v47.641
		c-0.046,0.499-0.044,0.992,0,1.477v312.74H214.54c-4.515,0-8.175,3.659-8.175,8.175c0,24.102-19.61,43.712-43.712,43.712
		s-43.712-19.61-43.712-43.712V16.35H118.939z M102.452,494.354L30.595,86.897L102.589,74.2v312.183
		c0,19.029,8.905,36.005,22.754,47.017l-3.273,18.558c-0.376,2.135,0.111,4.333,1.354,6.108c1.244,1.776,3.142,2.985,5.277,3.361
		l80.228,14.149L102.452,494.354z M409.548,494.354l-269.956-47.608l0.81-4.593c6.679,2.675,13.94,4.197,21.542,4.286
		c0.087,0.003,0.174,0.004,0.262,0.004h213.59c18.443,0,34.964-8.362,45.99-21.488L409.548,494.354z M429.971,378.539
		c-0.727-0.211-1.493-0.331-2.289-0.331h-16.645V74.486l70.366,12.409L429.971,378.539z"/>
	<path style="fill:#50000F;" d="M156.864,118.993h12.987c0.621,0,1.18-0.379,1.409-0.957l3.256-8.203
		c0.229-0.578,0.788-0.957,1.409-0.957h19.702c0.621,0,1.18,0.379,1.409,0.957l3.256,8.204c0.229,0.578,0.788,0.957,1.409,0.957
		h13.386c1.086,0,1.819-1.107,1.397-2.107l-22.648-53.58c-0.238-0.561-0.787-0.926-1.397-0.926h-13.004
		c-0.61,0-1.161,0.365-1.397,0.928l-22.572,53.58C155.045,117.888,155.779,118.993,156.864,118.993z M180.303,94.67l4.097-10.267
		c0.509-1.275,2.316-1.272,2.82,0.007l4.045,10.267c0.392,0.995-0.341,2.072-1.412,2.072h-8.142
		C180.638,96.749,179.905,95.666,180.303,94.67z"/>
	<path style="fill:#50000F;" d="M155.346,176.006h203.156c4.516,0,8.175-3.659,8.175-8.175s-3.659-8.175-8.175-8.175H155.346
		c-4.515,0-8.175,3.659-8.175,8.175C147.171,172.347,150.831,176.006,155.346,176.006z"/>
	<path style="fill:#50000F;" d="M155.346,207.374h203.156c4.516,0,8.175-3.659,8.175-8.175s-3.659-8.175-8.175-8.175H155.346
		c-4.515,0-8.175,3.659-8.175,8.175C147.171,203.715,150.831,207.374,155.346,207.374z"/>
	<path style="fill:#50000F;" d="M155.346,238.743h203.156c4.516,0,8.175-3.659,8.175-8.175s-3.659-8.175-8.175-8.175H155.346
		c-4.515,0-8.175,3.659-8.175,8.175S150.831,238.743,155.346,238.743z"/>
	<path style="fill:#50000F;" d="M155.346,270.111h80.326c4.515,0,8.175-3.659,8.175-8.175s-3.66-8.175-8.175-8.175h-80.326
		c-4.515,0-8.175,3.659-8.175,8.175S150.831,270.111,155.346,270.111z"/>
	<path style="fill:#50000F;" d="M216.333,76.173h6.089v6.089c0,0.729,0.592,1.321,1.321,1.321h3.742
		c0.729,0,1.321-0.591,1.321-1.321v-6.089h6.089c0.729,0,1.321-0.592,1.321-1.321V71.11c0-0.729-0.592-1.321-1.321-1.321h-6.089
		V63.7c0-0.729-0.592-1.321-1.321-1.321h-3.742c-0.729,0-1.321,0.591-1.321,1.321v6.089h-6.089c-0.729,0-1.321,0.592-1.321,1.321
		v3.742C215.013,75.583,215.603,76.173,216.333,76.173z"/>
</g>
<path style="fill:#FFFFFF;" d="M164.169,432.018h-0.458l0.033-0.011C163.885,432.018,164.027,432.018,164.169,432.018z"/>
<g>
</g>
<g>
</g>
<g>
</g>
<g>
</g>
<g>
</g>
<g>
</g>
<g>
</g>
<g>
</g>
<g>
</g>
<g>
</g>
<g>
</g>
<g>
</g>
<g>
</g>
<g>
</g>
<g>
</g>
</svg>
